<svg width="20" height="29" viewBox="0 0 20 29" fill="none" xmlns="http://www.w3.org/2000/svg">
<path d="M10 27.4592C9.77809 27.1925 9.5142 26.8705 9.21852 26.5007C8.29376 25.3442 7.06231 23.7258 5.83279 21.8761C4.60142 20.0236 3.38398 17.9571 2.47735 15.903C1.56506 13.8361 1 11.8538 1 10.15C1 5.0767 5.0377 1 10 1C14.9623 1 19 5.0767 19 10.15C19 11.8538 18.4349 13.8361 17.5227 15.903C16.616 17.9571 15.3986 20.0236 14.1672 21.8761C12.9377 23.7258 11.7062 25.3442 10.7815 26.5007C10.4858 26.8705 10.2219 27.1925 10 27.4592ZM6.76227 13.4151C7.61839 14.2841 8.78274 14.775 10 14.775C11.2173 14.775 12.3816 14.2841 13.2377 13.4151C14.0934 12.5466 14.5714 11.3719 14.5714 10.15C14.5714 8.92814 14.0934 7.75338 13.2377 6.88491C12.3816 6.01595 11.2173 5.525 10 5.525C8.78274 5.525 7.61839 6.01595 6.76227 6.88491C5.90664 7.75338 5.42857 8.92814 5.42857 10.15C5.42857 11.3719 5.90664 12.5466 6.76227 13.4151Z" fill="#5F646C" stroke="#5F646C" stroke-width="2"/>
</svg>
