<svg width="45" height="39" viewBox="0 0 45 39" fill="none" xmlns="http://www.w3.org/2000/svg">
<path d="M21.9968 1L22 0.999995C26.3217 1 29.9839 4.04044 30.7342 8.12637C33.2486 8.814 35.1428 11.0694 35.1428 13.8164C35.1428 17.1278 32.3921 19.7221 29.1142 19.7221H15.5962C11.9263 19.7221 8.85715 16.8189 8.85715 13.1247C8.85715 10.173 10.821 7.71723 13.4829 6.85579C13.8772 5.49872 14.7768 4.24498 15.8912 3.28327L21.9968 1ZM21.9968 1C19.7547 1.00705 17.5892 1.81693 15.8915 3.28301L21.9968 1Z" fill="#D8DEE3" stroke="#5F646C" stroke-width="2"/>
<line y1="-1" x2="8.48159" y2="-1" transform="matrix(0.59941 -0.800442 0.799557 0.60059 18.3571 26.9418)" stroke="#E1E1D5" stroke-width="2"/>
<line y1="-1" x2="5.16579" y2="-1" transform="matrix(0.59941 -0.800442 0.799557 0.60059 24.4285 24.2878)" stroke="#E1E1D5" stroke-width="2"/>
<line y1="-1" x2="5.57362" y2="-1" transform="matrix(0.59941 -0.800442 0.799557 0.60059 15.9285 24.6142)" stroke="#E1E1D5" stroke-width="2"/>
<path d="M5.05862 26.0021L4.4639 26.6197C4.84255 26.5173 5.20266 26.5018 5.54423 26.5729C5.88579 26.6441 6.19612 26.7918 6.47522 27.0162C7.12475 27.5382 7.29446 28.1104 6.98434 28.7327C7.36486 28.6193 7.74055 28.5997 8.11143 28.6736C8.48461 28.7453 8.81964 28.9005 9.11649 29.1391C9.99946 29.8488 10.0108 30.6464 9.15064 31.5321L6.64845 34.0155L6.19174 33.6484L8.66274 31.196C8.99522 30.8614 9.16366 30.5507 9.16808 30.2637C9.17504 29.9788 9.00218 29.6946 8.6495 29.4112C8.31758 29.1527 7.94398 29.0267 7.52871 29.0332C7.11575 29.0375 6.76142 29.1636 6.46573 29.4115L3.98433 31.8742L3.52763 31.5072L6.02982 29.0237C6.34843 28.703 6.50383 28.3983 6.49602 28.1098C6.49305 27.8211 6.32158 27.5401 5.98158 27.2668C5.69488 27.0364 5.37367 26.9131 5.01798 26.897C4.66459 26.8785 4.29171 26.9752 3.89934 27.1869L1.32783 29.7391L0.871128 29.372L4.62095 25.6503L5.05862 26.0021Z" fill="#5F646C"/>
<path d="M7.10114 34.1485L6.59717 33.8496L9.74949 29.6099L10.2534 29.9088L7.10114 34.1485ZM10.5732 28.3311C10.6392 28.2423 10.7254 28.1861 10.8317 28.1626C10.9399 28.1364 11.0472 28.1549 11.1536 28.218C11.2599 28.2811 11.3206 28.3622 11.3356 28.4615C11.3553 28.5597 11.3322 28.6533 11.2661 28.7421C11.2001 28.8309 11.1125 28.8863 11.0035 28.9082C10.8972 28.9317 10.7909 28.9119 10.6845 28.8488C10.5781 28.7857 10.5164 28.7059 10.4995 28.6093C10.4826 28.5126 10.5072 28.4199 10.5732 28.3311Z" fill="#5F646C"/>
<path d="M11.5998 31.2001L11.1821 31.9994C11.5208 31.794 11.8667 31.6767 12.2195 31.6475C12.5739 31.6155 12.9151 31.6714 13.2429 31.8154C13.7616 32.0431 14.0706 32.3523 14.1702 32.743C14.2697 33.1337 14.1671 33.6092 13.8624 34.1695L12.1908 37.2066L11.6588 36.973L13.3328 33.9316C13.5574 33.5168 13.6345 33.1682 13.5641 32.8859C13.4967 32.6049 13.2648 32.3774 12.8684 32.2033C12.5376 32.0581 12.1891 32.029 11.8229 32.1161C11.4612 32.2016 11.1267 32.3858 10.8192 32.6686L9.07461 35.8384L8.54258 35.6048L11.0901 30.9764L11.5998 31.2001Z" fill="#5F646C"/>
<path d="M13.6808 37.4471L13.1201 37.2769L14.9989 32.3391L15.5595 32.5092L13.6808 37.4471ZM15.4442 30.8809C15.4836 30.7774 15.5508 30.7011 15.646 30.6519C15.7423 30.5997 15.8496 30.5916 15.968 30.6275C16.0864 30.6634 16.1659 30.7283 16.2067 30.8221C16.2517 30.9138 16.2545 31.0114 16.2152 31.1149C16.1758 31.2183 16.107 31.2941 16.0087 31.3424C15.9136 31.3916 15.8068 31.3982 15.6885 31.3623C15.5701 31.3263 15.49 31.263 15.448 31.1722C15.4061 31.0814 15.4049 30.9843 15.4442 30.8809Z" fill="#5F646C"/>
<path d="M24.8943 35.656L25.7878 29.5283L27.5371 29.4326L26.0033 38.0598L24.2364 38.1564L22.6117 32.5301L21.4632 38.308L19.6963 38.4046L17.4506 29.9842L19.2 29.8885L20.6053 35.8788L21.7567 29.7487L23.2427 29.6674L24.8943 35.656Z" fill="#E1B603"/>
<path d="M26.6676 37.1602C26.22 37.1983 25.8028 37.1226 25.4161 36.9334C25.0326 36.7439 24.7195 36.4618 24.4767 36.0872C24.2335 35.7094 24.0859 35.2761 24.0339 34.7873L24.0116 34.5786C23.9579 34.0736 24.0067 33.6106 24.1583 33.1894C24.313 32.768 24.5533 32.4275 24.8791 32.1679C25.2046 31.9051 25.5717 31.7563 25.9804 31.7216C26.6194 31.6673 27.1486 31.8428 27.5682 32.2481C27.9906 32.6499 28.242 33.2279 28.3223 33.9821L28.3569 34.3074L24.6009 34.6265L24.6128 34.7382C24.6763 35.3338 24.8995 35.8162 25.2824 36.1854C25.6683 36.5511 26.1207 36.7119 26.6397 36.6678C26.951 36.6413 27.2191 36.5614 27.4438 36.428C27.6718 36.2943 27.8698 36.0946 28.0378 35.8288L28.4322 36.0746C28.0699 36.7292 27.4817 37.0911 26.6676 37.1602ZM26.0331 32.2169C25.5953 32.2541 25.2426 32.4457 24.975 32.7918C24.7108 33.1376 24.575 33.5835 24.5677 34.1296L27.7252 33.8614L27.7185 33.7982C27.6485 33.2947 27.4604 32.8958 27.1542 32.6018C26.8479 32.3077 26.4743 32.1794 26.0331 32.2169Z" fill="#5F646C"/>
<path d="M32.3144 35.8241C32.2145 35.6758 32.1148 35.446 32.0154 35.1347C31.8832 35.4352 31.6799 35.6893 31.4054 35.8969C31.1332 36.1008 30.8236 36.2394 30.4765 36.3129C29.9797 36.4181 29.5405 36.3666 29.1589 36.1582C28.7805 35.9492 28.5358 35.6355 28.4248 35.2171C28.2928 34.7199 28.397 34.2825 28.7374 33.9047C29.0809 33.5262 29.6269 33.2578 30.3753 33.0993L31.4119 32.8799L31.2578 32.2994C31.1609 31.9344 30.9703 31.6724 30.6859 31.5133C30.4038 31.3503 30.0447 31.3151 29.6084 31.4074C29.2103 31.4917 28.9074 31.6622 28.6997 31.9188C28.492 32.1755 28.4257 32.4454 28.5009 32.7286L27.9264 32.8452C27.8187 32.4393 27.9167 32.0481 28.2203 31.6714C28.5231 31.2916 28.9532 31.0427 29.5105 30.9247C30.0869 30.8027 30.5787 30.8497 30.9859 31.0659C31.3955 31.2783 31.6726 31.6383 31.8175 32.146L32.4588 34.5623C32.5899 35.0563 32.7406 35.4149 32.9108 35.638L32.9258 35.6946L32.3144 35.8241ZM30.4106 35.7985C30.7927 35.7176 31.1092 35.5542 31.3602 35.3084C31.6143 35.0618 31.7693 34.7715 31.8252 34.4373L31.5271 33.3141L30.5048 33.5305C29.9365 33.6575 29.5182 33.8557 29.25 34.1252C28.9809 34.3915 28.8928 34.6993 28.9855 35.0485C29.0615 35.3348 29.2312 35.5498 29.4947 35.6934C29.7613 35.8363 30.0666 35.8713 30.4106 35.7985Z" fill="#5F646C"/>
<path d="M31.5189 28.853L32.047 30.0982L33.083 29.7477L33.2698 30.1883L32.2338 30.5388L33.6083 33.7799C33.7226 34.0496 33.8571 34.2337 34.0117 34.3322C34.1694 34.4296 34.3654 34.4387 34.5998 34.3594C34.6923 34.3281 34.8355 34.2625 35.0294 34.1627L35.2393 34.5954C35.116 34.6954 34.9294 34.7876 34.6797 34.8721C34.3004 35.0004 33.9793 34.9874 33.7164 34.833C33.4522 34.6757 33.2318 34.3887 33.0551 33.9721L31.6787 30.7265L30.7583 31.0379L30.5715 30.5974L31.4919 30.286L30.9639 29.0408L31.5189 28.853Z" fill="#5F646C"/>
<path d="M35.094 29.6392C35.105 29.2855 35.2013 28.9701 35.3828 28.693C35.5643 28.4158 35.8151 28.2007 36.1353 28.0477C36.6463 27.8035 37.1086 27.7585 37.5222 27.9128C37.9358 28.0671 38.3081 28.4172 38.6389 28.9631L40.4208 31.937L39.8965 32.1875L38.1122 29.2095C37.8666 28.806 37.5949 28.548 37.2969 28.4354C37.0019 28.3213 36.6591 28.3577 36.2685 28.5444C35.9425 28.7002 35.7118 28.9362 35.5763 29.2524C35.4421 29.5644 35.4135 29.9139 35.4905 30.301L37.3502 33.4046L36.826 33.6552L32.9711 27.2217L33.4953 26.9711L35.094 29.6392Z" fill="#5F646C"/>
<path d="M42.3028 30.3699C41.9262 30.6148 41.5152 30.7508 41.0697 30.778C40.6269 30.8034 40.1965 30.7185 39.7784 30.5232C39.3583 30.3254 38.993 30.036 38.6824 29.655L38.5497 29.4923C38.2289 29.0987 38.0218 28.6909 37.9284 28.269C37.8378 27.8454 37.8668 27.4482 38.0155 27.0774C38.1622 26.7041 38.4074 26.4056 38.7513 26.182C39.2889 25.8324 39.8534 25.7259 40.4449 25.8625C41.0371 25.9947 41.5728 26.3548 42.052 26.9427L42.2587 27.1963L39.0986 29.2512L39.1695 29.3382C39.548 29.8025 40.0069 30.0966 40.5465 30.2206C41.0867 30.3404 41.5751 30.2583 42.0117 29.9743C42.2737 29.804 42.4683 29.6099 42.5955 29.392C42.7255 29.1724 42.7931 28.9122 42.7985 28.6114L43.2814 28.6275C43.314 29.3437 42.9878 29.9245 42.3028 30.3699ZM39.066 26.5681C38.6975 26.8076 38.4883 27.1348 38.4381 27.5497C38.3906 27.9627 38.5114 28.3977 38.8002 28.8545L41.4569 27.127L41.4168 27.0778C41.0823 26.693 40.6997 26.4516 40.2689 26.3534C39.8381 26.2552 39.4371 26.3267 39.066 26.5681Z" fill="#5F646C"/>
<path d="M42.1657 23.9262C42.0547 23.9905 41.9458 24.0678 41.839 24.1583C41.5607 24.3938 41.3993 24.664 41.3548 24.9687C41.3103 25.269 41.3881 25.5867 41.588 25.9218L44.2284 28.4099L43.7849 28.7853L39.9399 25.1621L40.3759 24.7929L40.9946 25.3626C40.7757 24.7342 40.9272 24.1991 41.4489 23.7574C41.5731 23.6522 41.6867 23.5837 41.7895 23.5517L42.1657 23.9262Z" fill="#5F646C"/>
</svg>
